<svg width="108" height="108" viewBox="0 0 108 108" fill="none" xmlns="http://www.w3.org/2000/svg">
<circle cx="54" cy="54" r="54" fill="#AEDEFF"/>
<path d="M108 54C108 43.8887 105.161 33.9806 99.8066 25.4035C94.452 16.8264 86.7969 9.92504 77.7127 5.48495L54 54H108Z" fill="#FFC4DF"/>
<path d="M16.9641 93.2982C22.9296 98.9202 30.0966 103.11 37.922 105.551L54 54L16.9641 93.2982Z" fill="#E1EEDD"/>
<path d="M77.9064 5.58013C66.3062 -0.147239 53.0354 -1.51969 40.5086 1.7125C27.9818 4.9447 17.0318 12.5667 9.65086 23.1917C2.26996 33.8166 -1.05119 46.7383 0.291718 59.6054C1.63463 72.4725 7.55235 84.43 16.9681 93.3019L54 54L77.9064 5.58013Z" fill="#FFE4C7"/>
</svg>
