<svg width="24" height="24" viewBox="0 0 24 24" fill="none" xmlns="http://www.w3.org/2000/svg">
<path d="M22 12C22.0024 10.3604 21.6017 8.74527 20.833 7.29696C20.0643 5.84865 18.9512 4.61158 17.5919 3.6947C16.2325 2.77782 14.6686 2.20926 13.0378 2.0391C11.4069 1.86895 9.75931 2.10241 8.23997 2.71893C6.72062 3.33545 5.37619 4.31611 4.32507 5.57454C3.27395 6.83297 2.5484 8.33057 2.21232 9.93542C1.87624 11.5403 1.93994 13.2031 2.39781 14.7776C2.85568 16.352 3.69368 17.7897 4.83799 18.9641L4.78099 19.015L5.68099 19.75C5.91399 19.9401 6.15699 20.118 6.40599 20.286C6.42499 20.299 6.44599 20.31 6.46599 20.323C6.69499 20.475 6.92899 20.618 7.16599 20.75C7.27699 20.812 7.39199 20.8651 7.50499 20.9221C7.65799 20.9991 7.80499 21.076 7.96599 21.1451C8.12699 21.2141 8.25199 21.2631 8.39699 21.319C8.54199 21.375 8.66899 21.4191 8.80699 21.469C8.95999 21.521 9.11399 21.569 9.27099 21.6131C9.41299 21.6531 9.55599 21.6891 9.69999 21.7241C9.84399 21.7591 9.99999 21.794 10.155 21.824C10.328 21.856 10.503 21.88 10.678 21.904C10.806 21.921 10.931 21.9421 11.06 21.9541C11.371 21.983 11.683 22.001 11.996 22.001C12.309 22.001 12.621 21.983 12.932 21.9541C13.061 21.9421 13.186 21.921 13.314 21.904C13.489 21.88 13.664 21.856 13.837 21.824C13.99 21.795 14.137 21.76 14.292 21.7241C14.447 21.6881 14.579 21.6531 14.721 21.6131C14.878 21.5681 15.032 21.521 15.185 21.469C15.323 21.423 15.459 21.369 15.595 21.319C15.731 21.2691 15.885 21.207 16.027 21.144C16.169 21.081 16.334 20.9991 16.486 20.923C16.6 20.865 16.715 20.812 16.826 20.75C17.065 20.618 17.299 20.475 17.526 20.323C17.546 20.31 17.567 20.299 17.586 20.286C17.835 20.118 18.078 19.9401 18.311 19.75L19.211 19.015L19.154 18.9641C20.9763 17.1039 21.9979 14.6041 22 12ZM12 4.00005C13.5823 4.00137 15.1287 4.47189 16.4435 5.3521C17.7584 6.2323 18.7828 7.48266 19.387 8.94504C19.9912 10.4074 20.1483 12.0161 19.8382 13.5678C19.5281 15.1194 18.7649 16.5442 17.645 17.6621C15.9888 16.52 14.0108 15.9377 12 16C9.9892 15.9377 8.01117 16.52 6.35499 17.6621C5.23512 16.5442 4.47188 15.1194 4.1618 13.5678C3.85173 12.0161 4.00874 10.4074 4.61298 8.94504C5.21722 7.48266 6.24156 6.2323 7.55644 5.3521C8.87132 4.47189 10.4177 4.00137 12 4.00005ZM15.869 19C15.6102 19.145 15.3431 19.2746 15.069 19.3881C15.017 19.41 14.962 19.426 14.91 19.446C14.6418 19.551 14.3681 19.6411 14.09 19.716L14.003 19.7381C12.6867 20.0681 11.3093 20.0681 9.99299 19.7381L9.90599 19.716C9.62792 19.6411 9.35417 19.551 9.08599 19.446C9.03399 19.426 8.97899 19.41 8.92699 19.3881C8.65291 19.2746 8.38578 19.145 8.12699 19C8.09899 18.984 8.07199 18.965 8.04299 18.949C9.25536 18.2896 10.6204 17.9623 12 18C13.3779 17.9621 14.7415 18.2884 15.953 18.946C15.924 18.962 15.9 18.9811 15.869 19Z" fill="#54B175"/>
<path d="M12 15C12.89 15 13.76 14.7361 14.5001 14.2416C15.2401 13.7471 15.8169 13.0443 16.1575 12.2221C16.4981 11.3998 16.5872 10.495 16.4135 9.6221C16.2399 8.74918 15.8113 7.94736 15.182 7.31802C14.5526 6.68868 13.7508 6.2601 12.8779 6.08647C12.005 5.91283 11.1002 6.00195 10.2779 6.34254C9.45566 6.68314 8.75285 7.25991 8.25839 7.99994C7.76392 8.73996 7.5 9.60999 7.5 10.5C7.50132 11.6931 7.97585 12.8369 8.81948 13.6805C9.66311 14.5241 10.8069 14.9987 12 15ZM12 8C12.4945 8 12.9778 8.14662 13.3889 8.42133C13.8 8.69603 14.1205 9.08648 14.3097 9.54329C14.4989 10.0001 14.5484 10.5028 14.452 10.9877C14.3555 11.4727 14.1174 11.9181 13.7678 12.2678C13.4181 12.6174 12.9727 12.8555 12.4877 12.952C12.0028 13.0484 11.5001 12.9989 11.0433 12.8097C10.5865 12.6205 10.196 12.3001 9.92133 11.8889C9.64662 11.4778 9.5 10.9945 9.5 10.5C9.5 9.83696 9.76339 9.20108 10.2322 8.73223C10.7011 8.26339 11.337 8 12 8Z" fill="#54B175"/>
</svg>
