<svg width="24" height="24" viewBox="0 0 24 24" fill="none" xmlns="http://www.w3.org/2000/svg">
<path d="M11.9998 1.97607L1.92383 4.21507L1.99983 5.09007C2.10683 6.26507 3.13883 16.6301 6.44083 18.8321C8.08556 19.9504 9.79229 20.9747 11.5528 21.9001L11.9998 22.1231L12.4468 21.9001C14.2057 20.9759 15.9111 19.9533 17.5548 18.8371C20.8568 16.6301 21.8888 6.26507 21.9998 5.09007L22.0788 4.21507L11.9998 1.97607ZM16.4448 17.1681C14.3448 18.5681 12.7448 19.4681 11.9998 19.8681C11.2588 19.4681 9.64983 18.5681 7.55483 17.1681C5.79083 15.9921 4.54683 9.90007 4.08483 5.78307L11.9998 4.02407L19.9148 5.78307C19.4528 9.90007 18.2088 15.9921 16.4448 17.1681Z" fill="#9B81E5"/>
<path d="M9.70697 10.2931L8.29297 11.7071L12.155 15.5701L16.832 8.55507L15.168 7.44507L11.845 12.4301L9.70697 10.2931Z" fill="#9B81E5"/>
</svg>
