<svg width="22" height="23" viewBox="0 0 22 23" fill="none" xmlns="http://www.w3.org/2000/svg">
<path d="M7.91402 20.9097V17.6198C7.914 16.783 8.59619 16.1031 9.44142 16.0975H12.5375C13.3868 16.0975 14.0752 16.7791 14.0752 17.6198V20.9199C14.075 21.6304 14.6478 22.211 15.3653 22.2277H17.4293C19.4869 22.2277 21.1549 20.5764 21.1549 18.5393V9.18055C21.1439 8.37918 20.7639 7.62666 20.1229 7.13714L13.0638 1.50756C11.8272 0.527335 10.0692 0.527335 8.83252 1.50756L1.80442 7.14736C1.16101 7.63489 0.780315 8.38867 0.772391 9.19076V18.5393C0.772391 20.5764 2.44041 22.2277 4.49801 22.2277H6.56206C7.29733 22.2277 7.89338 21.6376 7.89338 20.9097" stroke="black" stroke-width="1.5" stroke-linecap="round" stroke-linejoin="round"/>
</svg>
