<svg width="20" height="20" viewBox="0 0 20 20" fill="none" xmlns="http://www.w3.org/2000/svg">
<path d="M17.5001 5.83325V4.99992H15.8334V5.83325H14.7676L13.9342 3.33325H6.06591L5.23258 5.83325H1.66675V17.4999H18.3334V5.83325H17.5001ZM16.6667 15.8333H3.33341V7.49992H6.43425L7.26758 4.99992H12.7326L13.5659 7.49992H16.6667V15.8333Z" fill="white"/>
<path d="M10 7.5C9.25832 7.5 8.5333 7.71993 7.91661 8.13199C7.29993 8.54404 6.81928 9.12971 6.53545 9.81494C6.25162 10.5002 6.17736 11.2542 6.32206 11.9816C6.46675 12.709 6.8239 13.3772 7.34835 13.9017C7.8728 14.4261 8.54098 14.7833 9.26841 14.9279C9.99584 15.0726 10.7498 14.9984 11.4351 14.7145C12.1203 14.4307 12.706 13.9501 13.118 13.3334C13.5301 12.7167 13.75 11.9917 13.75 11.25C13.7489 10.2558 13.3535 9.30259 12.6504 8.59957C11.9474 7.89654 10.9942 7.5011 10 7.5ZM10 13.3333C9.58796 13.3333 9.18517 13.2111 8.84256 12.9822C8.49996 12.7533 8.23293 12.4279 8.07525 12.0473C7.91757 11.6666 7.87631 11.2477 7.9567 10.8436C8.03708 10.4394 8.2355 10.0682 8.52686 9.77686C8.81822 9.4855 9.18944 9.28708 9.59356 9.2067C9.99769 9.12631 10.4166 9.16757 10.7973 9.32525C11.1779 9.48293 11.5033 9.74996 11.7322 10.0926C11.9611 10.4352 12.0833 10.838 12.0833 11.25C12.0833 11.8025 11.8638 12.3324 11.4731 12.7231C11.0824 13.1138 10.5525 13.3333 10 13.3333Z" fill="white"/>
</svg>
